<?xml version="1.0" encoding="utf-8"?>
<!-- Generator: Adobe Illustrator 21.0.2, SVG Export Plug-In . SVG Version: 6.00 Build 0)  -->
<svg version="1.1" id="Слой_1" xmlns="http://www.w3.org/2000/svg" xmlns:xlink="http://www.w3.org/1999/xlink" x="0px" y="0px"
	 viewBox="0 0 266 203" style="enable-background:new 0 0 266 203;" xml:space="preserve">
<style type="text/css">
	.st0{fill:#8DBACD;}
	.st1{fill:#EFF1F3;}
</style>
<path class="st0" d="M99.9,129.9V201h-9.4V58.2h9.4v63.1h44.5v8.6H99.9z"/>
<path class="st0" d="M241.7,124.9c14.5-3.1,18.8-12.6,18.8-28.2v-8.2c0-19.8-7.8-31.4-29.2-31.4H211v8.6h20.1c15.3,0,20,8.8,20,23.6
	v9.2c0,18.2-7.8,22.6-24.5,22.6H211v8.6h17.4c16.9,0,25.3,6.5,25.3,25.1v12.9c0,15.9-6.1,24.7-21.8,24.7H211v8.6h20.9
	c21.8,0,31.2-12.4,31.2-33v-12.4C263.1,139.4,257.2,128,241.7,124.9z"/>
<path class="st0" d="M156.8,165.9c0,15.3,5.7,27.1,21.4,27.1c15.7,0,21.4-11.8,21.4-27.1V57.5h8.8v107.9c0,20.4-8.6,36.1-30.4,36.1
	c-21.8,0-30.6-15.7-30.6-36.1V57.5h9.4V165.9z"/>
<path class="st0" d="M83.8,153c0-27.5-18.8-45.1-37-58.4C29.7,82.2,12,73.3,12,49.1c0-11.6,2.3-20.7,7-27.1
	c5.3-7.4,13.4-11.1,24.2-11.1c24,0,30.9,16.1,31.1,33.9l9.3-0.1c-0.2-14.1-3.8-24.3-9-31c-6-7.7-17.7-11.5-31.7-11.5
	C9.2,2.4,2.1,28.3,2.1,49.9c0,27.9,18.9,37.7,37.3,51c17,12.4,34.6,29.1,34.6,52.9c0,25-11,38.2-31.7,38.2
	c-19.9,0-30.3-12.3-30.7-36.6l-9.3,0.1c0.5,30.2,14,45.5,40.3,45.5c13.9,0,24.6-4.5,31.6-13.5C80.6,179.4,83.8,167.8,83.8,153z"/>
<g>
	<path class="st1" d="M101.6,45V12.1h-7.2V10H111v2.1h-7.1V45H101.6z"/>
	<path class="st1" d="M146.1,36.5c0,3.8,1.4,6.7,5.3,6.7s5.3-2.9,5.3-6.7V10h2.2v26.5c0,5-2.1,8.9-7.5,8.9c-5.4,0-7.5-3.8-7.5-8.9
		V10h2.3V36.5z"/>
	<path class="st1" d="M200.4,10c5.4,0,7.8,3.5,7.8,8.7v17.6c0,5.2-2.4,8.7-7.8,8.7h-7.7V10H200.4z M200.4,42.9
		c3.9,0,5.5-2.6,5.5-6.5V18.6c0-3.9-1.6-6.5-5.5-6.5H195v30.8H200.4z"/>
	<path class="st1" d="M248.4,31.5L240.6,10h2.4l6.7,18.4l6.7-18.4h2.3l-7.9,21.6V45h-2.3V31.5z"/>
</g>
</svg>
