<?xml version="1.0" encoding="utf-8"?>
<!-- Generator: Adobe Illustrator 21.0.2, SVG Export Plug-In . SVG Version: 6.00 Build 0)  -->
<svg version="1.1" id="Слой_1" xmlns="http://www.w3.org/2000/svg" xmlns:xlink="http://www.w3.org/1999/xlink" x="0px" y="0px"
	 viewBox="0 0 960 560" style="enable-background:new 0 0 960 560;" xml:space="preserve">
<style type="text/css">
	.st0{fill:#8DBACD;}
	.st1{fill:#EFF1F3;}
</style>
<path class="st0" d="M543.7,253.9c14.5-3.1,18.8-12.6,18.8-28.2v-8.2c0-19.8-7.8-30.4-29.2-30.4H513v8.6h20.1c15.3,0,20,7.8,20,22.6
	v9.2c0,18.2-7.8,22.6-24.5,22.6H513v8.6h17.4c16.9,0,25.3,6.5,25.3,25.1v12.9c0,15.9-6.1,24.7-21.8,24.7H513v8.6h20.9
	c21.8,0,31.2-12.4,31.2-33v-12.4C565.1,268.4,559.2,257,543.7,253.9z"/>
<path class="st0" d="M457.8,295.9c0,15.3,5.7,27.1,21.4,27.1c15.7,0,21.4-11.8,21.4-27.1V187.5h8.8v107.9c0,20.4-8.6,36.1-30.4,36.1
	c-21.8,0-30.6-15.7-30.6-36.1V187.5h9.4V295.9z"/>
<path class="st0" d="M400.9,258.9V330h-9.4V187.2h9.4v63.1h44.5v8.6H400.9z"/>
<path class="st0" d="M383.8,282c0-27.5-18.8-41.1-37-54.4c-17.1-12.5-34.9-25.4-34.9-49.6c0-11.6,2.3-20.7,7-27.1
	c5.3-7.4,13.4-11.1,24.2-11.1c24,0,30.9,16.1,31.1,33.9l9.3-0.1c-0.2-14.1-3.3-23.9-8.5-30.6c-6-7.7-18.2-11.9-32.2-11.9
	c-33.7,0.3-40.7,26.2-40.7,47.8c0,27.9,18.9,41.7,37.3,55c17,12.4,34.6,25.1,34.6,48.9c0,25-11,38.2-31.7,38.2
	c-19.9,0-30.3-12.3-30.7-36.6l-9.3,0.1c0.5,30.2,14,45.5,40.3,45.5c13.9,0,24.6-4.5,31.6-13.5C380.6,308.4,383.8,296.8,383.8,282z"
	/>
<g>
	<path class="st1" d="M398.6,172v-32.9h-7.2V137H408v2.1h-7.1V172H398.6z"/>
	<path class="st1" d="M443.1,163.5c0,3.8,1.4,6.7,5.3,6.7s5.3-2.9,5.3-6.7V137h2.2v26.5c0,5-2.1,8.9-7.5,8.9c-5.4,0-7.5-3.8-7.5-8.9
		V137h2.3V163.5z"/>
	<path class="st1" d="M497.4,137c5.4,0,7.8,3.5,7.8,8.7v17.6c0,5.2-2.4,8.7-7.8,8.7h-7.7v-35H497.4z M497.4,169.9
		c3.9,0,5.5-2.6,5.5-6.5v-17.8c0-3.9-1.7-6.5-5.5-6.5H492v30.8H497.4z"/>
	<path class="st1" d="M545.4,158.5l-7.9-21.6h2.4l6.7,18.4l6.7-18.4h2.3l-7.9,21.6V172h-2.3V158.5z"/>
</g>
</svg>
